<svg width="800" height="800" viewBox="0 0 800 800" fill="none" xmlns="http://www.w3.org/2000/svg">
<path d="M135.813 99.7934C137.754 65.4571 145.956 50.5257 169.477 38.5354C194.786 25.63 234.702 31.6358 281.671 55.4204C301.902 65.6697 303.962 65.8784 339.417 61.3327C386.543 55.2884 447.213 55.3097 490.71 61.3881C523.603 65.9847 525.763 65.7551 546.043 55.4844C612.713 21.7227 665.35 23.9317 684.41 61.2901C693.923 79.9374 695.69 128.324 688.313 168.232C684.223 190.356 684.657 193.119 694.51 207.637C763.833 309.795 713.883 475.387 595.093 537.183C586.003 541.913 578.343 544.84 572.1 547.223C552.93 554.543 547.11 556.767 554.157 590.46C557.55 606.667 561.637 646.96 563.243 680.007C566.147 739.74 566.103 740.157 555.627 752.343C541.367 768.92 520.813 769.2 506.887 753.007C497.803 742.447 496.917 737.46 496.917 696.717C496.917 636.507 490.317 596.487 474.723 562.193C456.18 521.383 469.927 506.167 512.333 497.047C571.277 484.367 617.313 447.99 642.973 393.82C667.37 342.327 671.047 271.167 626.94 227.889C614.397 212.983 613.523 199.482 622.48 158.77C625.827 143.553 628.633 123.923 628.717 115.142C628.843 101.274 627.58 99.1804 619.063 99.1804C613.673 99.1804 593.08 107.021 573.307 116.602L541.747 131.898C538.877 133.289 535.667 133.823 532.5 133.46C452.25 124.249 375.997 124.106 295.354 133.496C292.175 133.866 288.951 133.331 286.072 131.934L254.528 116.627C234.753 107.029 214.161 99.1804 208.772 99.1804C196.314 99.1804 196.126 108.378 207.482 163.026C214.419 196.401 219.087 203.838 199.034 230.524C168.975 270.525 161.467 320.197 177.586 372.387C197.901 438.153 247.65 482.583 317.591 497.407C359.753 506.343 370.773 518.003 354.673 566.35C342 604.397 333.987 614.203 315.569 614.203C290.788 614.203 275.265 592.737 283.808 570.273C287.571 560.373 286.451 559.317 263.237 550.85C192.372 525.013 138.171 467.103 113.391 390.743C94.237 331.728 102.665 254.913 133.392 208.484C143.854 192.676 144.016 191.335 139.133 161.072C136.371 143.941 134.877 116.368 135.813 99.7934Z" fill="white"/>
<path d="M111.068 531.513C100.856 516.197 80.1604 512.057 64.8427 522.27C49.5254 532.48 45.3861 553.177 55.5977 568.493C63.1367 579.803 72.1557 589.093 79.8147 596.75C81.2267 598.163 82.5987 599.527 83.9384 600.857C90.3541 607.23 96.0187 612.857 101.708 619.537C114.292 634.307 126.845 654.2 133.98 689.873C137.158 705.763 148.58 714.323 154.908 718.063C161.772 722.117 169.271 724.507 175.442 726.063C188.065 729.247 203.39 730.9 217.933 731.863C233.898 732.923 251.197 733.267 266.666 733.36C266.678 751.757 281.597 766.67 299.999 766.67C318.409 766.67 333.333 751.747 333.333 733.337V700.003C333.333 681.593 318.409 666.67 299.999 666.67C296.857 666.67 293.457 666.68 289.856 666.693C270.294 666.753 244.796 666.83 222.339 665.343C211.51 664.627 202.608 663.61 196.08 662.367C186.028 622.903 169.787 596.647 152.458 576.303C144.797 567.313 136.864 559.447 130.412 553.047C129.204 551.85 128.048 550.703 126.955 549.61C119.51 542.167 114.64 536.873 111.068 531.513Z" fill="white"/>
</svg>
